# xmcd
#
# Track frame offsets: 
#        150
#        32607
#        51796
#        78627
#        108128
#
# Disc length: 1877 seconds
#
# Revision: 0
# Processed by: cddbd v1.5.2PL0 Copyright (c) Steve Scherf et al.
# Submitted via: ExactAudioCopy v0.95a4
#
DISCID=33075305
DTITLE=Paul Butterfield - Bumbershoot Festival - Seattle WA 8-31-80
DYEAR=1980
DGENRE=Blues
TTITLE0=Last Night
TTITLE1=Shake Your Money Maker
TTITLE2=Get Out of My Life Woman
TTITLE3=Goin' Down
TTITLE4=Rock Me Baby
EXTD=
EXTT0=
EXTT1=
EXTT2=
EXTT3=
EXTT4=
PLAYORDER=
